Coordinates
version=1
nRows=8
nColumns=40
inDegrees=yes

Units are S.I. units (second, meters, Newtons, ...)
Angles are in degrees.

endheader
time	pelvis_tilt	pelvis_list	pelvis_rotation	pelvis_tx	pelvis_ty	pelvis_tz	hip_flexion_r	hip_adduction_r	hip_rotation_r	knee_angle_r	knee_angle_r_beta	ankle_angle_r	subtalar_angle_r	mtp_angle_r	hip_flexion_l	hip_adduction_l	hip_rotation_l	knee_angle_l	knee_angle_l_beta	ankle_angle_l	subtalar_angle_l	mtp_angle_l	lumbar_extension	lumbar_bending	lumbar_rotation	arm_flex_r	arm_add_r	arm_rot_r	elbow_flex_r	pro_sup_r	wrist_flex_r	wrist_dev_r	arm_flex_l	arm_add_l	arm_rot_l	elbow_flex_l	pro_sup_l	wrist_flex_l	wrist_dev_l
     57.32000000	     -5.60873655	     -4.56413657	      2.50881977	      0.98417808	      0.93310978	      0.48860723	     10.28023501	      3.75746776	    -18.62031266	     13.74754681	     13.74754681	     11.11906099	      4.96508683	     -1.13398602	     45.21894334	    -11.30757641	      2.47414876	     65.94462816	     65.94462816	     10.18032495	    -18.32852662	     12.81527921	    -12.42009191	      6.04278559	      6.34766818	     33.03278735	    -15.23130367	    -11.02873553	     37.22753325	     46.41787633	      0.00000000	      0.00000000	     -0.84993296	     -6.16036925	      0.33837404	     26.79132498	     46.51079401	      0.00000000	      0.00000000
     57.33171429	     -5.79676577	     -4.66036553	      2.48926683	      0.98267169	      0.93264698	      0.48878958	      9.62431416	      4.02033945	    -18.56708446	     12.99022616	     12.99022616	     11.27384657	      5.38382139	     -1.39460174	     45.63668331	    -11.17781334	      2.36431329	     62.80174605	     62.80174605	      9.78574045	    -18.17022186	     12.56951421	    -12.31256878	      6.14924328	      6.37004419	     34.59523121	    -15.26415408	     -9.34232283	     40.32975346	     46.19703872	      0.00000000	      0.00000000	     -2.29886980	     -6.04312250	      0.56108001	     25.82942971	     46.42791475	      0.00000000	      0.00000000
     57.34342857	     -5.94570415	     -4.70215724	      2.51004277	      0.98128980	      0.93220743	      0.48880975	      8.91346150	      4.22187248	    -18.54764150	     12.21736921	     12.21736921	     11.31344396	      5.64765995	     -1.92427616	     45.76185182	    -10.98639335	      2.17530447	     59.23344279	     59.23344279	      9.01241741	    -18.06967477	     11.65207661	    -12.26978027	      6.16610699	      6.84545721	     35.17487533	    -16.27577342	     -6.18421583	     45.14559512	     45.82985306	      0.00000000	      0.00000000	     -3.60191450	     -6.02867279	      1.10081205	     25.17883289	     46.25970566	      0.00000000	      0.00000000
     57.35514286	     -6.12476742	     -4.82260026	      2.54790371	      0.97991616	      0.93165966	      0.48872485	      8.21263878	      4.50120368	    -18.52548723	     11.41043425	     11.41043425	     11.46957057	      6.03421597	     -1.96990023	     45.79572439	    -10.76014612	      2.17293031	     55.46013492	     55.46013492	      8.65343081	    -17.76920401	     11.89536007	    -12.14261892	      6.30308520	      6.60998370	     37.10238244	    -15.82561134	     -5.85264169	     47.37559540	     45.73895277	      0.00000000	      0.00000000	     -5.10170645	     -5.96134744	      1.32376794	     24.45112513	     46.18273324	      0.00000000	      0.00000000
     57.36685714	     -6.32898773	     -4.93719206	      2.58215972	      0.97862136	      0.93095308	      0.48851796	      7.53984136	      4.74629401	    -18.64656069	     10.61605083	     10.61605083	     11.56387091	      6.58895633	     -2.33980085	     45.62837290	    -10.56255917	      2.07074709	     51.34568050	     51.34568050	      7.80378480	    -17.37745283	     10.90194299	    -12.04895463	      6.40859604	      6.83805885	     37.92730613	    -16.18348213	     -4.66758615	     51.96166923	     45.51837985	      0.00000000	      0.00000000	     -6.53527567	     -5.98557119	      1.82486467	     24.35938890	     46.02996627	      0.00000000	      0.00000000
     57.37857143	     -6.49587835	     -5.08393205	      2.64139732	      0.97745609	      0.93029343	      0.48820525	      6.82038728	      5.03721353	    -18.64926098	      9.83059458	      9.83059458	     11.68806621	      6.94046985	     -2.37453675	     45.27110025	    -10.30881955	      2.12777460	     47.08872711	     47.08872711	      7.38401547	    -16.75877867	     11.21448172	    -11.91411914	      6.54186079	      6.54724840	     39.59723312	    -15.66991113	     -4.42987624	     54.32458760	     45.43265976	      0.00000000	      0.00000000	     -7.96999981	     -5.90063664	      2.05824334	     23.75422781	     45.95359268	      0.00000000	      0.00000000
     57.39028571	     -6.67244931	     -5.31118330	      2.70275304	      0.97647313	      0.92942264	      0.48782417	      6.09224501	      5.39808895	    -18.81053493	      9.01955524	      9.01955524	     11.80337003	      7.55544391	     -2.51161134	     44.78103488	    -10.17508774	      2.13525123	     42.74158337	     42.74158337	      6.86683237	    -15.86508064	     11.16289363	    -11.79110882	      6.78407648	      6.29841172	     40.86502211	    -15.30873558	     -3.93245495	     57.93721460	     45.29330231	      0.00000000	      0.00000000	     -9.44110660	     -5.82029323	      2.31625895	     23.50763078	     45.86533255	      0.00000000	      0.00000000
     57.40200000	     -6.85300589	     -5.51658823	      2.71800501	      0.97569849	      0.92845723	      0.48736246	      5.39180770	      5.71244026	    -18.97921909	      8.29277882	      8.29277882	     11.91703053	      8.22061766	     -2.69173009	     44.11113076	    -10.07503636	      1.99519917	     38.35259647	     38.35259647	      6.31366703	    -14.76960183	     11.00828179	    -11.63119154	      6.96763796	      6.36959587	     41.59029012	    -15.37410954	     -3.30762078	     62.32190208	     45.12780609	      0.00000000	      0.00000000	    -10.82117013	     -5.82142002	      2.64123873	     23.56627674	     45.76172952	      0.00000000	      0.00000000
